HIERARCHY
ROOT Hips
{
	OFFSET -0.001795 -0.223333 0.028219
	CHANNELS 6 Xposition Yposition Zposition Zrotation Yrotation Xrotation 
	JOINT LeftUpLeg
	{
		OFFSET 0.069520 -0.091406 -0.006815
		CHANNELS 3 Zrotation Yrotation Xrotation
		JOINT LeftLeg
		{
			OFFSET 0.034277 -0.375199 -0.004496
			CHANNELS 3 Zrotation Yrotation Xrotation
			JOINT LeftFoot
			{
				OFFSET -0.013596 -0.397961 -0.043693
				CHANNELS 3 Zrotation Yrotation Xrotation
				JOINT LeftToe
				{
					OFFSET 0.026358 -0.055791 0.119288
					CHANNELS 3 Zrotation Yrotation Xrotation
					End Site
					{
						OFFSET 0.000000 0.000000 0.000000
					}
				}
			}
		}
	}
	JOINT RightUpLeg
	{
		OFFSET -0.067670 -0.090522 -0.004320
		CHANNELS 3 Zrotation Yrotation Xrotation
		JOINT RightLeg
		{
			OFFSET -0.038290 -0.382569 -0.008850
			CHANNELS 3 Zrotation Yrotation Xrotation
			JOINT RightFoot
			{
				OFFSET 0.015774 -0.398415 -0.042312
				CHANNELS 3 Zrotation Yrotation Xrotation
				JOINT RightToe
				{
					OFFSET -0.025372 -0.048144 0.123348
					CHANNELS 3 Zrotation Yrotation Xrotation
					End Site
					{
						OFFSET 0.000000 0.000000 0.000000
					}
				}
			}
		}
	}
	JOINT Spine
	{
		OFFSET -0.002533 0.108963 -0.026696
		CHANNELS 3 Zrotation Yrotation Xrotation
		JOINT Spine1
		{
			OFFSET 0.005487 0.135180 0.001092
			CHANNELS 3 Zrotation Yrotation Xrotation
			JOINT Spine2
			{
				OFFSET 0.001457 0.052922 0.025425
				CHANNELS 3 Zrotation Yrotation Xrotation
				JOINT Neck
				{
					OFFSET -0.002778 0.213870 -0.042857
					CHANNELS 3 Zrotation Yrotation Xrotation
					JOINT Head
					{
						OFFSET 0.005152 0.064970 0.051349
						CHANNELS 3 Zrotation Yrotation Xrotation
						End Site
						{
							OFFSET 0.000000 0.000000 0.000000
						}
					}
				}
				JOINT LeftShoulder
				{
					OFFSET 0.078845 0.121749 -0.034090
					CHANNELS 3 Zrotation Yrotation Xrotation
					JOINT LeftArm
					{
						OFFSET 0.090977 0.030469 -0.008868
						CHANNELS 3 Zrotation Yrotation Xrotation
						JOINT LeftForeArm
						{
							OFFSET 0.259612 -0.012772 -0.027456
							CHANNELS 3 Zrotation Yrotation Xrotation
							JOINT LeftHand
							{
								OFFSET 0.249234 0.008986 -0.001171
								CHANNELS 3 Zrotation Yrotation Xrotation
								End Site
								{
									OFFSET 0.000000 0.000000 0.000000
								}
							}
						}
					}
				}
				JOINT RightShoulder
				{
					OFFSET -0.081759 0.118833 -0.038615
					CHANNELS 3 Zrotation Yrotation Xrotation
					JOINT RightArm
					{
						OFFSET -0.096012 0.032551 -0.009143
						CHANNELS 3 Zrotation Yrotation Xrotation
						JOINT RightForeArm
						{
							OFFSET -0.253742 -0.013329 -0.021401
							CHANNELS 3 Zrotation Yrotation Xrotation
							JOINT RightHand
							{
								OFFSET -0.255298 0.007772 -0.005559
								CHANNELS 3 Zrotation Yrotation Xrotation
								End Site
								{
									OFFSET 0.000000 0.000000 0.000000
								}
							}
						}
					}
				}
			}
		}
	}
}
MOTION
Frames: 16
Frame Time: 0.050000
0.000000 0.948088 0.000000 -0.987833 -4.263180 2.759854 7.066633 -0.054709 0.116546 -2.029010 0.242451 -0.221921 3.775946 10.474277 12.968571 0.000000 0.000000 0.000000 -4.192721 0.259926 -1.579816 1.359609 -0.113356 0.577843 -2.580832 -10.668032 13.267748 0.000000 0.000000 0.000000 -2.611651 0.011507 2.155691 3.330833 -0.616281 -17.979889 -0.091354 1.586323 27.654860 1.342984 0.669386 -26.312461 0.000000 0.000000 0.000000 -18.718117 -3.720637 1.314572 -51.231904 -21.518391 0.628402 -79.251423 -66.884534 64.614498 0.000000 0.000000 0.000000 8.335738 10.789352 4.116355 41.886739 22.174947 1.215128 138.998306 79.342223 137.511122 0.000000 0.000000 0.000000 
0.000050 0.946969 0.001225 -1.224730 -4.596003 3.257927 7.481407 -0.026694 1.294700 -2.394958 0.319912 -2.933783 3.863783 10.607024 13.136513 0.000000 0.000000 0.000000 -4.063069 0.236463 -1.144850 1.503852 -0.171688 -1.081277 -2.375935 -10.337204 13.278320 0.000000 0.000000 0.000000 -2.861031 0.048444 0.828391 3.256991 -0.602630 -17.926095 0.591204 1.679026 28.703334 0.919382 0.912655 -26.772289 0.000000 0.000000 0.000000 -19.081795 -3.227380 1.106217 -50.086487 -22.863489 0.981770 -88.437084 -66.835577 73.263903 0.000000 0.000000 0.000000 7.591546 10.996097 4.178641 42.110267 24.379624 1.856964 135.918884 80.097124 134.702970 0.000000 0.000000 0.000000 
0.000092 0.947361 0.002173 -0.969517 -4.701882 3.106757 7.734535 -0.037193 0.859448 -3.358301 0.406175 -1.786699 3.872104 10.612444 13.145612 0.000000 0.000000 0.000000 -4.263013 0.259730 -1.429045 1.331415 -0.132776 -0.235677 -2.385986 -10.331146 13.119712 0.000000 0.000000 0.000000 -2.636953 0.046787 0.500326 3.581952 -0.722733 -17.578056 -0.036208 2.578892 28.393321 1.862536 0.372301 -24.700927 0.000000 0.000000 0.000000 -19.640053 -3.801053 1.186031 -49.049565 -23.142301 1.050163 -86.816493 -67.919108 72.292153 0.000000 0.000000 0.000000 9.715586 11.961540 4.810323 39.950083 25.147650 1.915331 137.084702 80.543443 136.548430 0.000000 0.000000 0.000000 
-0.000036 0.946504 0.003246 -0.815759 -4.286106 3.222308 7.877260 -0.043367 1.133602 -3.804378 0.449781 -2.528049 3.638960 10.265483 13.013861 0.000000 0.000000 0.000000 -4.553947 0.252577 -1.188401 1.629323 -0.172366 -0.654455 -2.611969 -10.640524 12.960340 0.000000 0.000000 0.000000 -3.118760 0.075149 -0.458000 3.968205 -0.804654 -17.901884 0.020258 2.141377 29.428411 1.956108 0.271031 -24.729099 0.000000 0.000000 0.000000 -19.638096 -3.597202 1.158611 -49.110980 -24.330304 1.443435 -86.878573 -68.266429 72.930470 0.000000 0.000000 0.000000 9.309707 11.944676 4.771136 39.973718 25.668473 1.990837 141.319974 79.404898 140.673123 0.000000 0.000000 0.000000 
-0.000317 0.946771 0.004484 -0.861639 -4.056841 2.773296 7.802626 -0.030337 1.413778 -3.501422 0.417631 -2.085389 3.528494 10.098257 12.897292 0.000000 0.000000 0.000000 -4.503328 0.206812 -0.554880 1.693431 -0.180135 -0.688664 -2.670209 -10.735470 13.034860 0.000000 0.000000 0.000000 -2.920236 0.066251 -0.468429 3.975528 -0.839819 -17.361606 0.119370 2.039550 28.712056 1.853419 0.322501 -24.370257 0.000000 0.000000 0.000000 -19.260886 -3.755618 1.206871 -48.890321 -24.658474 1.663159 -85.879879 -69.881906 73.426278 0.000000 0.000000 0.000000 9.631934 12.231709 4.903424 39.538872 25.443342 1.950545 136.792712 78.908261 134.884140 0.000000 0.000000 0.000000 
-0.000635 0.946683 0.005575 -0.992181 -3.701866 2.790532 8.019820 -0.039601 1.557374 -3.521394 0.417549 -2.347715 3.354600 9.846860 12.829473 0.000000 0.000000 0.000000 -4.441437 0.184267 -0.261879 1.934644 -0.210449 -1.000590 -2.797790 -10.946733 13.154347 0.000000 0.000000 0.000000 -2.925170 0.070348 -0.720632 3.954530 -0.752423 -18.493963 0.403682 1.943494 29.738456 1.753260 0.402151 -24.543482 0.000000 0.000000 0.000000 -18.575302 -3.609866 1.150997 -49.165568 -25.813715 2.080495 -84.623008 -71.129384 73.601662 0.000000 0.000000 0.000000 9.644593 12.404393 5.016109 39.559021 25.079429 1.747156 134.897568 78.879790 132.837300 0.000000 0.000000 0.000000 
-0.000930 0.946749 0.006374 -1.018122 -3.549350 2.648481 8.157858 -0.039737 1.699730 -3.645451 0.428328 -2.281951 3.262528 9.711788 12.802490 0.000000 0.000000 0.000000 -4.450697 0.179410 -0.223763 2.059947 -0.214588 -0.650335 -2.875007 -11.057547 13.111993 0.000000 0.000000 0.000000 -2.805560 0.066271 -0.683935 3.919120 -0.754213 -18.272995 0.500663 1.781619 29.365861 1.720051 0.424205 -24.683086 0.000000 0.000000 0.000000 -18.719220 -3.814160 1.259616 -48.738247 -26.198459 2.235718 -82.914028 -72.897015 73.665281 0.000000 0.000000 0.000000 10.055085 12.554154 5.096752 39.703869 24.490440 1.608311 131.622834 78.774104 128.912769 0.000000 0.000000 0.000000 
-0.001101 0.946790 0.006921 -1.148499 -3.570695 2.583707 8.390085 -0.040917 1.797999 -3.786547 0.442310 -2.239761 3.265725 9.712884 12.783380 0.000000 0.000000 0.000000 -4.358412 0.181081 -0.318402 2.161435 -0.216049 -0.283887 -2.868704 -11.041370 13.077420 0.000000 0.000000 0.000000 -2.560288 0.059322 -0.537777 3.776832 -0.684915 -18.736168 0.485556 1.809711 29.536974 1.643429 0.477601 -24.777744 0.000000 0.000000 0.000000 -18.798379 -3.987888 1.359707 -48.570950 -26.597032 2.358898 -83.359243 -74.181087 75.397306 0.000000 0.000000 0.000000 10.542713 12.518562 5.123371 39.426421 23.988526 1.396389 128.688842 78.382694 125.210868 0.000000 0.000000 0.000000 
-0.001181 0.947016 0.007296 -1.190274 -3.670225 2.527640 8.380245 -0.033966 1.943594 -3.704488 0.435371 -2.305095 3.297991 9.771018 12.864764 0.000000 0.000000 0.000000 -4.368612 0.182347 -0.329337 2.246996 -0.220661 -0.137609 -2.809615 -10.954774 13.110973 0.000000 0.000000 0.000000 -2.355922 0.056706 -0.571955 3.634492 -0.656032 -18.587106 0.461589 1.796921 29.450891 1.740319 0.400933 -24.681316 0.000000 0.000000 0.000000 -18.996235 -4.055610 1.409867 -48.662631 -26.850069 2.482863 -84.255186 -74.878833 77.003714 0.000000 0.000000 0.000000 10.607425 12.401766 5.063808 39.283553 23.664411 1.282739 125.997371 78.300808 122.000310 0.000000 0.000000 0.000000 
-0.001229 0.947246 0.007666 -1.228206 -3.893261 2.473526 8.399315 -0.023987 2.125677 -3.712592 0.438152 -2.393580 3.381824 9.902755 12.976714 0.000000 0.000000 0.000000 -4.541689 0.188606 -0.304201 2.583990 -0.250678 -0.096269 -2.675279 -10.751243 13.162936 0.000000 0.000000 0.000000 -2.248750 0.054769 -0.562326 3.632773 -0.658877 -18.615768 0.477945 1.945324 29.298416 1.632084 0.466717 -24.600095 0.000000 0.000000 0.000000 -19.120069 -4.024644 1.381048 -48.744884 -27.029776 2.591729 -86.227132 -75.164141 79.207149 0.000000 0.000000 0.000000 10.487346 12.308859 5.011920 38.639283 23.149984 1.078856 123.500998 77.728684 118.545931 0.000000 0.000000 0.000000 
-0.001256 0.947194 0.008036 -1.236479 -3.995545 2.334664 8.417899 -0.012401 2.427976 -3.748624 0.442944 -2.574056 3.407112 9.939067 12.998054 0.000000 0.000000 0.000000 -4.653990 0.179327 -0.077861 2.775621 -0.270166 -0.211315 -2.606071 -10.634952 13.150505 0.000000 0.000000 0.000000 -2.016675 0.046912 -0.418281 3.375698 -0.576738 -18.807828 0.447673 1.974822 29.225619 1.766658 0.371805 -24.476309 0.000000 0.000000 0.000000 -19.131500 -3.971141 1.360372 -48.723851 -26.832684 2.511053 -92.058197 -74.320321 84.167520 0.000000 0.000000 0.000000 10.156745 12.042474 4.864299 37.553752 23.041736 0.954258 121.325812 76.831719 115.066823 0.000000 0.000000 0.000000 
-0.001231 0.947100 0.008378 -1.233694 -4.319070 2.267615 8.432739 0.002974 2.707945 -3.858627 0.456528 -2.777296 3.537715 10.127229 13.064543 0.000000 0.000000 0.000000 -4.809225 0.182666 0.019306 2.972517 -0.287564 -0.301708 -2.444655 -10.367323 13.090683 0.000000 0.000000 0.000000 -1.849368 0.045167 -0.452541 3.258457 -0.551347 -18.797391 0.232476 2.006082 28.989031 1.740422 0.338544 -24.109880 0.000000 0.000000 0.000000 -19.283613 -3.676563 1.231583 -48.493042 -26.482754 2.354215 -95.388311 -73.048937 86.262589 0.000000 0.000000 0.000000 9.616546 11.916136 4.741408 35.732439 23.124535 0.850750 120.214745 75.849996 112.485238 0.000000 0.000000 0.000000 
-0.001131 0.946782 0.008611 -1.287850 -4.715748 2.185417 8.472778 0.018392 2.913710 -3.927606 0.466720 -2.793641 3.733615 10.394068 13.018231 0.000000 0.000000 0.000000 -4.890229 0.181922 0.152903 3.125066 -0.300687 -0.450188 -2.253382 -10.042180 12.982620 0.000000 0.000000 0.000000 -1.710598 0.039948 -0.345379 3.130661 -0.504524 -19.131006 0.195984 2.034897 29.206454 1.904289 0.202057 -24.122321 0.000000 0.000000 0.000000 -19.499541 -3.418167 1.156621 -48.056297 -25.791157 1.974680 -100.214669 -71.355904 89.603154 0.000000 0.000000 0.000000 8.865403 11.855947 4.637321 33.574134 23.537877 0.770766 120.055581 75.026827 111.082621 0.000000 0.000000 0.000000 
-0.000893 0.946605 0.008625 -1.338406 -5.227476 2.130236 8.505542 0.035522 3.078187 -4.034634 0.481543 -2.775717 3.979737 10.737952 13.029420 0.000000 0.000000 0.000000 -5.062449 0.198684 0.068004 3.397198 -0.319565 -0.325100 -2.016130 -9.646761 12.877029 0.000000 0.000000 0.000000 -1.512922 0.033508 -0.229231 2.917865 -0.458054 -19.090135 0.138051 2.134835 28.959140 2.060611 0.056976 -23.833638 0.000000 0.000000 0.000000 -19.622236 -3.188624 1.076508 -47.561954 -24.754196 1.510749 -103.465919 -70.124998 91.770856 0.000000 0.000000 0.000000 8.138203 11.755283 4.517791 31.605752 23.837216 0.699564 120.733660 75.062760 111.501138 0.000000 0.000000 0.000000 
-0.000601 0.946532 0.008409 -1.514339 -5.573169 2.064941 8.634477 0.046324 3.247082 -4.034583 0.484582 -2.808997 4.153715 10.981702 13.012893 0.000000 0.000000 0.000000 -5.004138 0.205293 -0.054131 3.533792 -0.326553 -0.074742 -1.850339 -9.377593 12.836072 0.000000 0.000000 0.000000 -1.401411 0.025644 -0.037731 2.989278 -0.473792 -19.303555 -0.032793 2.100092 29.021662 2.383458 -0.172318 -23.942631 0.000000 0.000000 0.000000 -19.860380 -2.790322 0.920183 -47.612254 -23.537634 0.998145 -105.018177 -68.429432 91.776590 0.000000 0.000000 0.000000 7.424533 11.551281 4.362404 29.655783 24.479644 0.670796 122.894483 76.069517 114.567575 0.000000 0.000000 0.000000 
-0.000333 0.946489 0.008083 -1.671609 -6.251196 2.082257 8.734915 0.060995 3.211152 -4.099883 0.497602 -2.532220 4.503182 11.477237 13.036494 0.000000 0.000000 0.000000 -4.921766 0.214232 -0.158329 3.533082 -0.321371 -0.119557 -1.522725 -8.861361 12.809479 0.000000 0.000000 0.000000 -1.448135 0.029284 -0.115044 3.012089 -0.500013 -19.218906 0.000346 2.220610 28.869060 2.678326 -0.410025 -23.739754 0.000000 0.000000 0.000000 -20.218890 -2.239096 0.676993 -47.391673 -22.200932 0.438762 -107.055559 -67.217284 92.796712 0.000000 0.000000 0.000000 6.768648 11.418632 4.237934 28.331322 25.085411 0.686511 127.381024 78.498592 121.623122 0.000000 0.000000 0.000000 
